<?xml version="1.0" encoding="UTF-8"?>
<svg id="triangulated-9" data-name="triangulated" xmlns="http://www.w3.org/2000/svg" xmlns:xlink="http://www.w3.org/1999/xlink" viewBox="0 0 259.03 260.11">
  <defs>
    <style>
      .cls-1 {
        fill: url(#linear-gradient-2);
      }

      .cls-2 {
        fill: url(#linear-gradient-17);
      }

      .cls-3 {
        fill: url(#linear-gradient-15);
      }

      .cls-4 {
        fill: url(#linear-gradient-18);
      }

      .cls-5 {
        fill: url(#linear-gradient-28);
      }

      .cls-6 {
        fill: url(#linear-gradient-14);
      }

      .cls-7 {
        fill: url(#linear-gradient-20);
      }

      .cls-8 {
        fill: url(#linear-gradient-6);
      }

      .cls-9 {
        fill: #fff;
        opacity: .1;
      }

      .cls-10 {
        fill: url(#linear-gradient-32);
      }

      .cls-11 {
        fill: url(#linear-gradient-11);
      }

      .cls-12 {
        fill: url(#linear-gradient-10);
      }

      .cls-13 {
        fill: url(#linear-gradient-16);
      }

      .cls-14 {
        fill: url(#linear-gradient-31);
      }

      .cls-15 {
        fill: url(#linear-gradient-21);
      }

      .cls-16 {
        fill: url(#linear-gradient-25);
      }

      .cls-17 {
        fill: url(#linear-gradient-5);
      }

      .cls-18 {
        fill: url(#linear-gradient-34);
      }

      .cls-19 {
        fill: url(#linear-gradient-7);
      }

      .cls-20 {
        fill: url(#linear-gradient-24);
      }

      .cls-21 {
        fill: url(#linear-gradient-9);
      }

      .cls-22 {
        fill: url(#linear-gradient-22);
      }

      .cls-23 {
        fill: url(#linear-gradient-3);
      }

      .cls-24 {
        fill: url(#linear-gradient);
      }

      .cls-25 {
        fill: url(#linear-gradient-27);
      }

      .cls-26 {
        fill: url(#linear-gradient-33);
      }

      .cls-27 {
        fill: url(#linear-gradient-29);
      }

      .cls-28 {
        fill: url(#linear-gradient-30);
      }

      .cls-29 {
        fill: url(#linear-gradient-23);
      }

      .cls-30 {
        fill: url(#linear-gradient-19);
      }

      .cls-31 {
        fill: url(#linear-gradient-4);
      }

      .cls-32 {
        fill: url(#linear-gradient-8);
      }

      .cls-33 {
        fill: url(#linear-gradient-12);
      }

      .cls-34 {
        fill: url(#linear-gradient-13);
      }

      .cls-35 {
        fill: url(#linear-gradient-26);
      }
    </style>
    <linearGradient id="linear-gradient" x1="54.81" y1="232.79" x2="165.47" y2="160.56" gradientUnits="userSpaceOnUse">
      <stop offset="0" stop-color="#509b6f"/>
      <stop offset=".09" stop-color="#36857e"/>
      <stop offset=".2" stop-color="#1e708c"/>
      <stop offset=".3" stop-color="#106494"/>
      <stop offset=".38" stop-color="#0b6098"/>
      <stop offset=".59" stop-color="#0b6098"/>
      <stop offset=".71" stop-color="#114b82"/>
      <stop offset=".96" stop-color="#22184a"/>
      <stop offset="1" stop-color="#250f41"/>
    </linearGradient>
    <linearGradient id="linear-gradient-2" x1="50.8" y1="226.65" x2="161.47" y2="154.42" xlink:href="#linear-gradient"/>
    <linearGradient id="linear-gradient-3" x1="41.5" y1="212.39" x2="152.16" y2="140.17" xlink:href="#linear-gradient"/>
    <linearGradient id="linear-gradient-4" x1="32.63" y1="198.81" x2="143.3" y2="126.59" xlink:href="#linear-gradient"/>
    <linearGradient id="linear-gradient-5" x1="40.17" y1="210.36" x2="150.84" y2="138.14" xlink:href="#linear-gradient"/>
    <linearGradient id="linear-gradient-6" x1="28.64" y1="192.7" x2="139.31" y2="120.47" xlink:href="#linear-gradient"/>
    <linearGradient id="linear-gradient-7" x1="52.05" y1="228.56" x2="162.72" y2="156.34" xlink:href="#linear-gradient"/>
    <linearGradient id="linear-gradient-8" x1="49.81" y1="225.16" x2="160.48" y2="152.94" xlink:href="#linear-gradient"/>
    <linearGradient id="linear-gradient-9" x1="41.72" y1="212.73" x2="152.38" y2="140.51" xlink:href="#linear-gradient"/>
    <linearGradient id="linear-gradient-10" x1="33.32" y1="199.86" x2="143.99" y2="127.64" xlink:href="#linear-gradient"/>
    <linearGradient id="linear-gradient-11" x1="41.2" y1="211.94" x2="151.87" y2="139.72" xlink:href="#linear-gradient"/>
    <linearGradient id="linear-gradient-12" x1="32.67" y1="198.86" x2="143.33" y2="126.64" xlink:href="#linear-gradient"/>
    <linearGradient id="linear-gradient-13" x1="33.64" y1="200.35" x2="144.31" y2="128.13" xlink:href="#linear-gradient"/>
    <linearGradient id="linear-gradient-14" x1="55.88" y1="209.14" x2="126.11" y2="138.25" gradientUnits="userSpaceOnUse">
      <stop offset="0" stop-color="#3c387f"/>
      <stop offset=".19" stop-color="#3b3a81"/>
      <stop offset=".33" stop-color="#3a428b"/>
      <stop offset=".44" stop-color="#39509a"/>
      <stop offset=".54" stop-color="#3861ad"/>
      <stop offset=".67" stop-color="#3862aa"/>
      <stop offset=".76" stop-color="#3866a0"/>
      <stop offset=".85" stop-color="#386e91"/>
      <stop offset=".92" stop-color="#39797b"/>
      <stop offset=".99" stop-color="#39875e"/>
      <stop offset="1" stop-color="#3a895b"/>
    </linearGradient>
    <linearGradient id="linear-gradient-15" x1="51.56" y1="53.61" x2="141.37" y2="169.17" gradientUnits="userSpaceOnUse">
      <stop offset=".02" stop-color="#b12a29"/>
      <stop offset=".69" stop-color="#ed762f"/>
      <stop offset=".78" stop-color="#ec782f"/>
      <stop offset=".84" stop-color="#eb8231"/>
      <stop offset=".9" stop-color="#e99134"/>
      <stop offset=".95" stop-color="#e6a738"/>
      <stop offset="1" stop-color="#e3c43d"/>
      <stop offset="1" stop-color="#e3c73e"/>
    </linearGradient>
    <linearGradient id="linear-gradient-16" x1="136.18" y1="162.49" x2="136.46" y2="162.85" gradientUnits="userSpaceOnUse">
      <stop offset="0" stop-color="#da2128"/>
      <stop offset=".48" stop-color="#d24e38"/>
      <stop offset="1" stop-color="#fec049"/>
    </linearGradient>
    <linearGradient id="linear-gradient-17" x1="217.85" y1="86.14" x2="146.33" y2="129.28" gradientUnits="userSpaceOnUse">
      <stop offset="0" stop-color="#297eaf"/>
      <stop offset=".52" stop-color="#0b6098"/>
      <stop offset="1" stop-color="#250f41"/>
    </linearGradient>
    <linearGradient id="linear-gradient-18" x1="225.25" y1="98.4" x2="153.72" y2="141.54" xlink:href="#linear-gradient-17"/>
    <linearGradient id="linear-gradient-19" x1="143.64" y1="217.42" x2="180.88" y2="130.6" xlink:href="#linear-gradient"/>
    <linearGradient id="linear-gradient-20" x1="181.91" y1="124.05" x2="172.14" y2="148.01" gradientTransform="translate(245.65 -77.86) rotate(70.68)" gradientUnits="userSpaceOnUse">
      <stop offset="0" stop-color="#509b6f"/>
      <stop offset=".52" stop-color="#0b6098"/>
      <stop offset="1" stop-color="#250f41"/>
    </linearGradient>
    <linearGradient id="linear-gradient-21" x1="183.65" y1="125.07" x2="143.21" y2="188.03" xlink:href="#linear-gradient-17"/>
    <linearGradient id="linear-gradient-22" x1="67.9" y1="74.68" x2="140.42" y2="167.98" gradientUnits="userSpaceOnUse">
      <stop offset=".02" stop-color="#c83031"/>
      <stop offset=".69" stop-color="#ed762f"/>
      <stop offset=".78" stop-color="#ec782f"/>
      <stop offset=".84" stop-color="#eb8231"/>
      <stop offset=".9" stop-color="#e99134"/>
      <stop offset=".95" stop-color="#e6a738"/>
      <stop offset="1" stop-color="#e3c43d"/>
      <stop offset="1" stop-color="#e3c73e"/>
    </linearGradient>
    <linearGradient id="linear-gradient-23" x1="85.62" y1="27.14" x2="175.43" y2="142.7" xlink:href="#linear-gradient-15"/>
    <linearGradient id="linear-gradient-24" x1="79.7" y1="31.74" x2="169.52" y2="147.29" xlink:href="#linear-gradient-15"/>
    <linearGradient id="linear-gradient-25" x1="66.14" y1="42.28" x2="155.95" y2="157.84" xlink:href="#linear-gradient-15"/>
    <linearGradient id="linear-gradient-26" x1="65.55" y1="42.71" x2="155.51" y2="158.45" xlink:href="#linear-gradient-15"/>
    <linearGradient id="linear-gradient-27" x1="47.19" y1="57.01" x2="137" y2="172.57" xlink:href="#linear-gradient-15"/>
    <linearGradient id="linear-gradient-28" x1="80.53" y1="31.09" x2="170.35" y2="146.65" xlink:href="#linear-gradient-15"/>
    <linearGradient id="linear-gradient-29" x1="78.71" y1="34.81" x2="166.37" y2="147.59" xlink:href="#linear-gradient-15"/>
    <linearGradient id="linear-gradient-30" x1="68.97" y1="45.44" x2="153.84" y2="154.64" xlink:href="#linear-gradient-15"/>
    <linearGradient id="linear-gradient-31" x1="53.24" y1="52.31" x2="142.35" y2="166.96" xlink:href="#linear-gradient-15"/>
    <linearGradient id="linear-gradient-32" x1="64.05" y1="43.9" x2="153.42" y2="158.89" xlink:href="#linear-gradient-15"/>
    <linearGradient id="linear-gradient-33" x1="53.91" y1="51.79" x2="143.72" y2="167.34" xlink:href="#linear-gradient-15"/>
    <linearGradient id="linear-gradient-34" x1="53.65" y1="51.98" x2="143.47" y2="167.54" xlink:href="#linear-gradient-15"/>
  </defs>
  <g>
    <g>
      <animateTransform
        attributeName="transform"
        type="rotate"
        values="-4 129.5 130;6 129.5 130;-4 129.5 130"
        dur="1.5s"
        repeatCount="indefinite"
      />
      <path class="cls-24" d="m133.18,171.43c-2.28,4.04-4.81,7.89-7.56,11.53-8.47,11.17-16.98,17.4-20.47,19.69.08.34.08.7-.03,1.05-.26.84-1.02,1.39-1.86,1.41h0s-2.07,6.76-2.07,6.76c3.2-1.44,6.39-3.23,9.57-5.41.1-.07.21-.14.32-.22,6.07-4.22,12.06-9.88,17.8-17.32.32-.41.64-.83.95-1.25,2.05-2.74,4.07-5.7,6.04-8.92h0c-.85-2.37-1.51-4.81-2.08-7.26-.2.01-.41,0-.61-.06Z"/>
      <path class="cls-1" d="m124.61,182.2c2.44-3.22,5.01-7.04,7.5-11.47-.29-.37-.45-.85-.42-1.34-.21-.01-.42-.03-.62-.05-2.1-.17-4.21-.39-6.29-.73v.02c-.32,1.03-1.39,1.62-2.42,1.35-3.44,3.79-7.21,7.19-11.27,10.2.12.38.13.79,0,1.2-.15.5-.49.9-.92,1.15l-5.81,18.95s.08.06.12.09c3.4-2.23,11.76-8.35,20.12-19.38Z"/>
      <path class="cls-23" d="m90.63,169.11l18.94,9.73c.07.01.13.03.2.05.06.02.11.03.16.06,4.01-3.01,7.71-6.37,11.1-10.08h0c-.15-.32-.2-.69-.16-1.05-10.02,1.21-20.14,1.64-30.24,1.3Z"/>
      <path class="cls-31" d="m108.3,149.7c3.16,1.19,6.43,2.07,9.76,2.65.5-.61,1.34-.89,2.13-.65.43.13.77.39,1.02.72,1.37-.92,2.7-1.9,3.99-2.94.7-.56,2.24-1.81,3.95-3.22,1.99-1.65,4.21-3.51,5.57-4.73-.98-1.62-2.54-4.02-3.93-6.13-2.48,1.78-5.47,2.9-10.18,4.08-3.26.82-7.35,1.66-12.66,2.75-.78.16-1.59.33-2.43.51-.17.04-.35.07-.53.11-1.88.4-3.89.82-6.06,1.29.07.31.07.64-.02.96,2.97,1.84,6.12,3.38,9.39,4.61Z"/>
      <path class="cls-17" d="m148.77,120.88c-.05-.93-.13-1.86-.2-2.81-.05-.6-.11-1.21-.16-1.83l-.18-1.29c-.04-.29-.08-.58-.12-.87l-.05-.35-.25-1.87-.11-.8c-.01-.07-.03-.15-.04-.22-.12-.43-.27-.8-.44-1.09l-.42.18c-.18.24-.35.68-.54,1.29-.51,1.66-1.18,4.56-2.66,8.02-.06.13-.11.27-.17.4.58,3.83.96,7.73,1.14,11.69.02.46.04.93.06,1.39l-.48,7.27c-.13-4.45-.96-12.39-1.75-18.23,0,0,0,0,0,0h0s-.21.36-.21.36c-.02.03-.04.07-.07.11-.01.02-.02.04-.04.06l-.02.04c-.13.22-.3.47-.49.77-.74,1.14-1.93,2.85-3.45,4.77-.25.31-.5.62-.76.94.45,1.99.84,3.99,1.16,6.01l.83,6.95c-.51-3.18-1.62-7.49-2.92-11.86-1.16,1.33-2.44,2.71-3.85,4.02-.34.32-.69.63-1.05.92.39.65.77,1.31,1.14,1.97l2.15,4.64c.37-.34.67-.62.88-.83l-.83.93-.09.1-3.59,3.99c-.49.47-.98.94-1.49,1.39-2.5,2.26-5.23,4.29-8.17,6.08.1.35.1.73-.02,1.11-.33,1.06-1.44,1.65-2.5,1.32-.35-.11-.64-.3-.87-.54-3.53,1.42-7.04,2.94-10.47,4.55-5.82,2.73-11.58,5.78-17.13,9.06.03.16.04.33.03.49l.04.02c10.04-1.3,20.18-1.82,30.3-1.56,0-.03.01-.05.02-.08.32-1.05,1.42-1.64,2.46-1.34,2.52-3.03,6.22-8.06,9.53-13.06,2.46-3.71,4.71-7.4,6.1-10.22l-2.83,6.4c-.85,1.73-1.76,3.43-2.7,5.11-1.77,3.12-3.71,6.14-5.83,9.06-.95,1.33-1.94,2.62-2.96,3.86.11.26.17.55.16.85.25,0,.49-.02.73-.02,2.2-.06,4.4-.02,6.6.09.41-.47,1.03-.73,1.66-.68.65-1.25,1.5-3.03,2.43-5.07,2.43-5.31,5.43-12.39,6.82-16.5l-1.68,7.09c-.15.44-.3.88-.46,1.31-1.27,3.55-2.7,7-4.28,10.35-.53,1.13-1.08,2.24-1.65,3.34.56.5.8,1.3.57,2.07-.12.41-.37.75-.68.99.44,2.54.82,5.1.96,7.68.59-.97,1.19-1.96,1.77-2.97.05-.11.1-.21.14-.32.79-1.73,1.53-3.44,2.23-5.12h0c.3-.73.6-1.45.88-2.15.34-.89.69-1.76,1.01-2.63.97-2.59,1.87-5.36,2.7-8.32h0c1.61-5.78,2.92-12.25,3.81-19.53.26-2.8.42-5.49.48-8.07v-.02c.08-3.07.02-5.98-.14-8.75Z"/>
      <path class="cls-8" d="m54.83,171.91l11.51-1.12,5.76-.56,5.76-.54,8.73-.82c0-.17.03-.34.09-.51.32-1.06,1.44-1.65,2.5-1.33.11.04.22.08.33.13,1.33-3.28,2.53-6.64,3.58-10.01,1.11-3.57,2.06-7.22,2.85-10.88-.47-.29-.79-.77-.9-1.3-1.57.34-3.21.7-4.93,1.09-2.55.57-5.25,1.19-8.14,1.87-10.4,2.45-19.38,7.72-26.88,13.99,0,0-.01.01-.02.02-3.77,3.14-7.17,6.54-10.19,9.96.27.26.46.59.55.96l9.43-.95Z"/>
      <path class="cls-19" d="m102.05,204.74c-.3-.21-.53-.51-.68-.84-.01,0-.03,0-.04.01-6.9,1.6-18.56-2.06-26.2-5.46-.54.85-1.41,1.48-2.44,1.68.03.67.03,1.33,0,2-.07,1.74-.3,3.48-.72,5.17-.1.42-.22.84-.34,1.26-.13.41-.26.83-.41,1.24-.3.82-.63,1.62-1,2.4-.45.93-.95,1.82-1.51,2.69.78.27,1.29.99,1.33,1.77,3.02.32,6.12.45,9.28.33,6.62-.25,13.5-1.58,20.41-4.47,0-.07,0-.15.03-.22l2.31-7.54h0Z"/>
      <path class="cls-32" d="m103.16,201.11l5.62-18.35c-.06-.01-.13-.03-.19-.05-.23-.07-.44-.18-.62-.32-5.06,3.41-10.48,6.28-16.16,8.65-5.2,2.16-10.61,3.91-16.12,5.26,0,.05,0,.1,0,.16,0,.54-.11,1.05-.31,1.51,4.04,1.19,8.06,2.41,12.12,3.47,3.87.98,7.77,1.98,11.77,2.17.66.02,1.32.02,1.98-.05-.08-.33-.07-.69.04-1.03.26-.85,1.03-1.4,1.87-1.41Z"/>
      <path class="cls-21" d="m89.07,170.89l-3.53,5.56-4.4,6.92-4.41,6.91-2.22,3.45c.3.28.55.61.74.98,12.18-2.95,22.81-7.52,31.92-13.78-.01-.23.01-.47.09-.7.1-.34.29-.63.53-.86l-17.71-9.09c-.27.31-.63.53-1.02.63Z"/>
      <path class="cls-12" d="m51.15,198.32c5.96-.42,11.64-1.13,17.04-2.12.08-1.19.71-2.22,1.64-2.86-1.24-1.36-2.52-2.67-3.84-3.94-1.11-1.07-2.25-2.1-3.42-3.1-.59-.49-1.17-.99-1.78-1.47l-.9-.72-.92-.7c-1.23-.93-2.47-1.82-3.75-2.67-1.28-.85-2.57-1.68-3.9-2.45-2.13-1.26-4.32-2.4-6.56-3.45-.51.43-1.21.61-1.9.4-.22-.07-.43-.17-.61-.31-7.76,9.44-12.64,18.5-14.5,22.25.71.34,1.15,1.07,1.13,1.85,7.42.15,14.86-.05,22.26-.72Z"/>
      <path class="cls-11" d="m70.91,209.69c.14-.4.25-.82.37-1.23.1-.41.21-.83.29-1.25.37-1.67.54-3.38.56-5.09,0-.64-.01-1.28-.06-1.91-.04,0-.09,0-.14,0-1.59,0-2.95-.99-3.5-2.38-9.18,1.66-18.54,2.28-27.65,2.01-3.97-.09-7.94-.32-11.9-.67-.01.14-.04.27-.08.4-.07.23-.17.43-.31.61,3.65,2.62,13.24,8.96,25.9,13.07.44.14.88.28,1.32.42,3.29,1.01,6.78,1.86,10.42,2.45.34-1.02,1.44-1.59,2.47-1.28.52-.89.99-1.81,1.4-2.75.34-.79.64-1.59.9-2.41Z"/>
      <path class="cls-33" d="m91.06,166.71c5.25-3.06,10.68-5.91,16.17-8.49,3.43-1.61,6.94-3.14,10.48-4.56,0-.09-.01-.19,0-.28-3.32-.59-6.59-1.48-9.75-2.67-3.36-1.26-6.59-2.85-9.64-4.73-.3.24-.68.39-1.07.43-.79,3.69-1.76,7.37-2.87,10.96-.97,3.14-2.08,6.27-3.3,9.34Z"/>
      <path class="cls-34" d="m75.88,189.75l.2-.33.36-.58.56-.91.56-.91.16-.27.16-.27.16-.27.16-.27.16-.27.16-.27.16-.27.16-.27.16-.27.16-.27.16-.27.16-.27.16-.27.16-.27.16-.27.16-.27.16-.27.03-.04.14-.22.16-.27.16-.27.16-.27.16-.27.16-.27.16-.27.16-.27.16-.27.16-.27.16-.27.16-.27.16-.27.16-.27.16-.27.16-.27.16-.27.16-.27.16-.27.16-.27.16-.27.16-.27.16-.27.16-.27.16-.27.16-.27.06-.09.11-.17.16-.27.16-.27.16-.27.16-.27.16-.27.16-.27.16-.27.16-.27.16-.27.16-.27.16-.27.16-.27.16-.27.17-.27.16-.27.16-.27.16-.27.16-.27.08-.13c-.35-.16-.64-.41-.84-.71h-.08s-.39.05-.39.05l-.39.04-.39.04-.39.04-.39.04-.39.04-.39.04-.39.04-.39.04-.39.04-.39.04-.39.04-.39.04-.39.04-.39.04-.39.04-.39.04-.39.04-.39.04-.39.04-.39.04-.39.04-.18.02-.22.02-.39.04-.39.04-.39.04-.39.04-.39.04-.39.04-.39.04-.39.04-.39.04-.39.04-.39.04-.39.04-.39.04-.39.04h-.02s-.38.04-.38.04l-.4.04-.4.04-.4.04-.4.04-.4.04-.4.04-.4.04-.4.04-.4.04-.4.04-.4.04-.4.04-.4.04-.23.02-.16.02-.4.04-.4.04-.4.04-.4.04-.4.04-.4.04-.4.04-.4.04-.4.04-.4.04-1.35.13-1.35.13-1.35.13-1.35.13-1.35.13-.63.06-.72.07-1.36.12-1.36.12-1.36.12-1.36.12-1.36.12-1.36.12-.66.06c.52.25,1.02.53,1.53.79,1.13.59,2.24,1.2,3.34,1.84.51.3,1.03.58,1.53.89.82.51,1.63,1.03,2.44,1.57,1.77,1.19,3.5,2.45,5.16,3.78.28.22.55.45.82.68.92.76,1.83,1.54,2.71,2.34,1.15,1.04,2.26,2.13,3.33,3.23,1.08,1.11,2.11,2.26,3.12,3.44.1.12.21.25.31.37.16.19.31.37.47.56.02-.01.05-.02.07-.03.36-.17.75-.27,1.16-.31.14-.02.28-.05.43-.05.42,0,.82.08,1.2.2.22.08.44.17.64.28l.42-.69.56-.91.56-.91.56-.91Z"/>
    </g>
    <path class="cls-6" d="m142.44,121.69s-.01.03-.02.04c0,0,0,.02-.02.03-.04.08-.12.2-.21.35l.21-.36.04-.07Z"/>
    <g>
      <path class="cls-3" d="m136.42,163.02l-.16-.64c.09.34.14.56.16.64Z"/>
      <path class="cls-13" d="m136.42,163.02l-.16-.64c.09.34.14.56.16.64Z"/>
    </g>
    <g>
      <path class="cls-2" d="m176.36,116.31c4.06-9.53,9.66-15.06,13.1-17.9,3.41-2.81,9.76-8.06,15.45-6.29,1.79.56,4.68,2.17,4.55,3.8-.09,1.1-1.52,1.83-2.12,2.12-3.85,1.89-8.14.25-9.83-.09-3.9-.79-10.29,2.04-21.16,18.36Z"/>
      <path class="cls-4" d="m185.73,120.65c5.76-8.6,12.3-12.99,16.21-15.15,3.87-2.13,11.09-6.1,16.35-3.3,1.65.88,4.19,3.01,3.76,4.58-.29,1.07-1.84,1.51-2.48,1.69-4.13,1.14-8.04-1.27-9.64-1.92-3.68-1.5-10.49.09-24.21,14.09Z"/>
      <animateTransform
        attributeName="transform"
        type="rotate"
        values="-2 190 112;4 190 112;-2 190 112"
        dur="2.2s"
        repeatCount="indefinite"
      />
    </g>
    <path class="cls-30" d="m169.71,191.09c-1.61,5.26-3.65,10.24-6.15,14.41-3.4,5.7-7.64,9.89-12.77,11.2-3.38.86-9.03.96-12.05-2.44-4.08-4.6-2.39-14.56,1.89-25.42,1.84-4.67,4.16-9.51,6.71-14.15,8.37-15.31,19.21-28.53,23.44-26.99,4.87,1.77,4.72,24.43-1.08,43.39Z"/>
    <ellipse class="cls-7" cx="177.73" cy="134.29" rx="10.75" ry="6.11" transform="translate(-7.8 257.58) rotate(-70.68)"/>
    <path class="cls-15" d="m183.49,136.32c-.19.52-.39,1.05-.62,1.53-.57,1.28-1.27,2.44-2.04,3.41-2.03,2.6-4.55,3.92-6.66,3.19-2.4-.83-3.55-4.14-3.12-8.13.14-1.26.42-2.58.87-3.91.01-.05.04-.09.05-.14,1.97-5.6,6.13-9.25,9.32-8.13s4.17,6.57,2.2,12.17Z"/>
    <path class="cls-9" d="m181.3,124.14s-6.92,4.77-8.64,19.26c-1.93-2.09-2.3-6.57-.7-11.14,1.97-5.59,6.12-9.23,9.31-8.14.01.01.02.01.02.01Z"/>
  </g>
  <path class="cls-9" d="m171.03,147.73c-6.29,9.4-13.1,21.14-19.19,35.21-5.21,12.03-8.79,23.23-11.29,32.99-.42-.24-1.24-.74-2-1.61-11.66-13.14,23.59-69.87,32.13-66.76.12.05.24.1.35.16Z"/>
    <g>
      <animateTransform
        attributeName="transform"
        type="rotate"
        values="4 129.5 130;-6 129.5 130;4 129.5 130"
        dur="1.5s"
        repeatCount="indefinite"
      />
    <g>
      <path class="cls-22" d="m136.29,162.5l.13.52c-.01-.07-.06-.25-.13-.52Z"/>
      <path class="cls-29" d="m146.86,106.5h0c-1.51,2.02-2.85,4.15-4.12,6.33-.19-.07-.39-.11-.61-.12-1-4.53-2.28-8.95-3.85-13.24-4.82-13.16-11.14-21.62-13.8-24.82.18-.3.28-.64.28-1.01,0-.88-.57-1.63-1.36-1.9h0s0-7.07,0-7.07c2.63,2.32,5.17,4.96,7.56,7.98.08.1.16.2.24.3,4.57,5.81,8.63,12.98,11.94,21.77.18.49.37.98.54,1.48,1.16,3.22,2.22,6.65,3.16,10.3Z"/>
      <path class="cls-20" d="m140.91,113.06c-.39.27-.68.68-.8,1.15-.2-.05-.41-.09-.61-.14-2.06-.45-4.14-.86-6.23-1.15v-.02c0-1.08-.85-1.95-1.91-2-2.17-4.63-4.79-8.99-7.78-13.06.23-.32.36-.72.36-1.14,0-.53-.2-1.01-.54-1.37v-19.82c.05-.01.1-.03.14-.05,2.6,3.13,8.79,11.43,13.56,24.43,1.39,3.8,2.73,8.2,3.8,13.16Z"/>
      <path class="cls-16" d="m129.76,111.6h0c-.23.27-.39.6-.46.96-9.23-4.1-18.78-7.48-28.53-10.11l20.96-3.75c.07,0,.14,0,.21,0,.06,0,.11,0,.17,0,2.96,4.05,5.51,8.35,7.65,12.89Z"/>
      <path class="cls-35" d="m100.68,102.6c9.22,4.19,18.84,7.51,28.59,10.22,0,.03,0,.06,0,.09,0,1.09.88,1.98,1.97,2,1.5,3.57,3.51,9.33,5.19,14.98,1.3,4.37,2.41,8.68,2.92,11.86l-.83-6.95c-.33-2.01-.72-4.02-1.16-6.01-.76-3.39-1.71-6.74-2.85-10.04-.52-1.55-1.09-3.07-1.7-4.56.19-.22.32-.48.4-.76.24.08.46.16.69.24,2.09.7,4.2,1.31,6.33,1.85.26.57.77,1,1.4,1.13.23,1.29.5,3.07.78,5.1h0c.79,5.85,1.62,13.79,1.75,18.24l.48-7.27c-.02-.46-.03-.93-.06-1.39-.18-3.96-.56-7.86-1.14-11.69-.16-1.05-.33-2.09-.52-3.13.68-.32,1.15-1.01,1.15-1.81,0-.43-.14-.82-.36-1.15,1.17-2.3,2.27-4.63,3.17-7.05.29,1.1.56,2.22.82,3.36.26,2.01.48,3.98.67,5.89h0c.01.17.03.33.05.49.06.61.11,1.22.16,1.83.07.95.14,1.88.2,2.81.16,2.76.22,5.67.14,8.75v.02c-.07,2.58-.22,5.27-.48,8.07-.56,6.06-1.61,12.66-3.25,19.83-.19.86-.41,1.72-.63,2.58,0,.01,0,.02,0,.04-.48,1.35-.97,2.68-1.48,3.97-.17.45-.35.89-.53,1.34-.14.35-.27.68-.41,1.02l-2.14,4.63c-.12.27-.25.53-.37.8l-.15.32-.79,1.71c-.25.6-.57,1.23-1,1.86-.06.09-.12.18-.19.26-.31-5.44-.58-9.44-.68-10.42-.03-.24-.11-.89-.12-.97-.07-.54-.16-1.1-.26-1.67-.01-.07-.06-.25-.13-.52,0-.02-.01-.04-.02-.07,0-.02,0-.04-.01-.06,0-.02,0-.05-.02-.07v-.04c-.07-.24-.16-.54-.25-.87h0c-.46-1.58-1.28-4.14-2.49-7.03-.18-.42-.36-.85-.56-1.28-.68-1.52-1.46-3.11-2.36-4.67-.27-.48-.56-.94-.87-1.39-.18-.25-.36-.51-.56-.75-1.86-2.37-4.4-4.3-8.54-6.79-2.86-1.71-6.48-3.69-11.15-6.25-.7-.39-1.42-.79-2.18-1.2-.15-.09-.31-.17-.48-.26-1.68-.93-3.48-1.93-5.42-3.01.16-.27.25-.59.27-.92,3.38-.88,6.85-1.44,10.33-1.65,3.37-.21,6.75-.1,10.1.33.3.73,1.02,1.24,1.85,1.24.44,0,.85-.14,1.19-.39,1.04,1.29,2.03,2.62,2.95,3.98.49.72,1.54,2.28,2.71,4.05,1.39,2.11,2.95,4.51,3.93,6.13.02.04.04.07.06.1.32.54.58.98.74,1.29l-.64-1.39-.04-.09-2.15-4.64c-.36-.66-.74-1.32-1.13-1.97-1.71-2.82-3.68-5.5-5.91-8,.2-.31.31-.67.31-1.06,0-1.11-.9-2-2-2-.36,0-.7.1-.99.27-2.96-2.39-5.87-4.88-8.68-7.42-4.77-4.32-9.38-8.92-13.72-13.68l.13-.32Z"/>
      <path class="cls-25" d="m99.61,114.59c.01,3.73-.14,7.51-.47,11.24-.54.14-.99.5-1.24.98-1.4-.79-2.86-1.61-4.39-2.48-2.27-1.29-4.68-2.68-7.24-4.17-9.22-5.39-16.27-13.06-21.6-21.26,0,0,0-.01-.01-.02-2.68-4.11-4.93-8.35-6.82-12.51.33-.17.61-.43.8-.75l8.74,3.67,10.68,4.45,5.34,2.22,5.34,2.21,8.1,3.34c-.04.16-.07.33-.07.51,0,1.1.9,2,2,2,.12,0,.24,0,.35-.03.31,3.52.48,7.09.49,10.61Z"/>
      <path class="cls-5" d="m122.18,63.62c-.03.07-.04.14-.04.22v7.89c-.35.12-.67.33-.9.6-.01,0-.03-.02-.04-.03-6.06-3.51-18.04-3.47-26.34-2.5-.41-.98-1.22-1.74-2.22-2.08.25-.69.47-1.4.66-2.11.45-1.68.73-3.41.82-5.15.03-.43.03-.87.04-1.3,0-.43,0-.87-.03-1.3-.04-.87-.13-1.73-.26-2.59-.16-1.02-.38-2.02-.66-3.01.82-.03,1.52-.57,1.79-1.3,2.98.58,5.98,1.37,8.97,2.41,6.26,2.18,12.45,5.46,18.2,10.25Z"/>
      <path class="cls-27" d="m122.14,75.53v19.19c-.07,0-.14,0-.2,0-.24,0-.47.04-.69.12h0c-7.22-8.94-16.27-16.42-26.26-22.44.11-.35.17-.73.17-1.13,0-.3-.04-.59-.1-.86,4.07.05,8.14.06,12.21.23,3.99.2,8.01.38,11.89,1.37.64.17,1.27.37,1.88.63-.17.3-.27.64-.27,1,0,.89.58,1.64,1.37,1.9Z"/>
      <path class="cls-28" d="m120.2,97.69l-19.6,3.51c-.17-.38-.45-.69-.79-.9l-1.74-6.35-2.18-7.9-2.19-7.9-.95-3.38c.5-.19.95-.48,1.32-.85.03-.03.06-.06.08-.09,10.52,6.32,19.16,13.69,25.92,22.19-.08.22-.13.45-.13.69,0,.35.09.69.26.98Z"/>
      <path class="cls-14" d="m88.15,73.08c-1.63.98-3.29,1.89-4.98,2.75-1.37.69-2.77,1.35-4.18,1.96-.71.3-1.41.61-2.13.88l-1.07.42-1.08.4c-1.44.53-2.9,1.02-4.37,1.45-1.47.43-2.95.85-4.44,1.2-2.41.58-4.84,1.03-7.29,1.38-.35-.56-.98-.94-1.7-.94-.24,0-.46.04-.67.12-4.66-11.3-6.66-21.4-7.34-25.52.78-.12,1.42-.69,1.63-1.44,7.14,2.03,14.19,4.4,21.06,7.21,5.78,2.23,11.18,4.67,16.21,7.31-.09.32-.14.66-.14,1,0,.66.17,1.28.48,1.82Z"/>
      <path class="cls-10" d="m93.81,59.16c-.02.43-.04.85-.09,1.28-.14,1.71-.47,3.39-.96,5.03-.21.71-.46,1.41-.73,2.1-.2-.04-.41-.05-.62-.05-1.03,0-1.97.42-2.65,1.1-.06.06-.12.12-.17.19-8.47-4.43-17.46-7.88-26.46-10.34-3.82-1.08-7.68-2.02-11.57-2.85.03-.13.04-.27.04-.41,0-.24-.04-.46-.12-.67,4.25-1.44,15.29-4.68,28.59-4.91.46,0,.92-.01,1.39-.01,3.45,0,7.03.21,10.68.71.03,1.08.91,1.94,1.99,1.95.24,1,.41,2.02.53,3.04.1.85.15,1.71.16,2.57.01.43,0,.86-.01,1.29Z"/>
    </g>
    <path class="cls-26" d="m122.14,125.15c-.04.09-.07.18-.09.27-3.35-.41-6.74-.52-10.1-.31-3.58.22-7.14.79-10.6,1.7-.22-.32-.53-.57-.9-.72.32-3.76.48-7.56.47-11.32-.01-3.29-.15-6.61-.42-9.9,4.12,4.47,8.48,8.78,12.97,12.85,2.81,2.55,5.72,5.04,8.68,7.43Z"/>
    <path class="cls-18" d="m98.49,100.42c-.38.05-.72.2-1.01.43l-8.3-3.45-5.34-2.23-5.34-2.2-10.69-4.41-8.86-3.62c2.41-.38,4.79-.89,7.15-1.5,3.01-.77,5.96-1.75,8.84-2.89,1.44-.56,2.86-1.19,4.26-1.85,1.4-.66,2.78-1.37,4.13-2.11,1.36-.75,2.68-1.54,3.99-2.37.37-.24.73-.47,1.1-.72.11.14.22.28.35.41.68.68,1.61,1.1,2.65,1.1.14,0,.29,0,.43-.03l.98,3.79,2.06,7.93,2.08,7.93,1.53,5.79Z"/>
  </g>
</svg>